<svg xmlns="http://www.w3.org/2000/svg" version="1.1" xmlns:xlink="http://www.w3.org/1999/xlink" xmlns:svgjs="http://svgjs.dev/svgjs" width="1500" height="397" viewBox="0 0 1500 397"><g transform="matrix(1,0,0,1,-0.9090909090909918,-0.8570259609673485)"><svg viewBox="0 0 396 105" data-background-color="#fafafa" preserveAspectRatio="xMidYMid meet" height="397" width="1500" xmlns="http://www.w3.org/2000/svg" xmlns:xlink="http://www.w3.org/1999/xlink"><g id="tight-bounds" transform="matrix(1,0,0,1,0.2400000000000091,0.2266693347646651)"><svg viewBox="0 0 395.52 104.54666133047064" height="104.54666133047064" width="395.52"><g><svg viewBox="0 0 572.7857292356823 151.4028004887984" height="104.54666133047064" width="395.52"><g transform="matrix(1,0,0,1,0,20.924699633401232)"><svg viewBox="0 0 395.52 109.55340122199593" height="109.55340122199593" width="395.52"><g id="textblocktransform"><svg viewBox="0 0 395.52 109.55340122199593" height="109.55340122199593" width="395.52" id="textblock"><g><svg viewBox="0 0 395.52 109.55340122199593" height="109.55340122199593" width="395.52"><g transform="matrix(1,0,0,1,0,0)"><svg width="395.52" viewBox="2.91 -36.04 131.85 36.53" height="109.55340122199593" data-palette-color="#e1e1e1"><path d="M25.56-11.28L30.27-11.28Q29.61-5.64 26.11-2.58 22.61 0.49 16.8 0.49L16.8 0.49Q10.5 0.49 6.7-4.03 2.91-8.54 2.91-16.11L2.91-16.11 2.91-19.53Q2.91-24.49 4.68-28.25 6.45-32.01 9.69-34.02 12.94-36.04 17.21-36.04L17.21-36.04Q22.88-36.04 26.29-32.87 29.71-29.71 30.27-24.12L30.27-24.12 25.56-24.12Q24.95-28.37 22.91-30.27 20.87-32.18 17.21-32.18L17.21-32.18Q12.72-32.18 10.17-28.86 7.62-25.54 7.62-19.41L7.62-19.41 7.62-15.97Q7.62-10.18 10.03-6.76 12.45-3.34 16.8-3.34L16.8-3.34Q20.7-3.34 22.79-5.11 24.88-6.88 25.56-11.28L25.56-11.28ZM57.42 0L49.7-14.38 41.35-14.38 41.35 0 36.64 0 36.64-35.55 48.41-35.55Q54.42-35.55 57.65-32.81 60.89-30.08 60.89-24.85L60.89-24.85Q60.89-21.53 59.09-19.07 57.3-16.6 54.1-15.38L54.1-15.38 62.45-0.29 62.45 0 57.42 0ZM41.35-31.69L41.35-18.21 48.56-18.21Q52.05-18.21 54.11-20.02 56.17-21.83 56.17-24.85L56.17-24.85Q56.17-28.15 54.21-29.91 52.24-31.67 48.53-31.69L48.53-31.69 41.35-31.69ZM67.45-35.55L73.51-35.55 85.13-6.54 96.75-35.55 102.83-35.55 102.83 0 98.14 0 98.14-13.84 98.58-28.78 86.91 0 83.32 0 71.67-28.71 72.14-13.84 72.14 0 67.45 0 67.45-35.55ZM121.57-15.84L121.57-15.84Q115.54-17.58 112.8-20.1 110.05-22.63 110.05-26.34L110.05-26.34Q110.05-30.54 113.41-33.29 116.76-36.04 122.14-36.04L122.14-36.04Q125.8-36.04 128.67-34.62 131.54-33.2 133.11-30.71 134.68-28.22 134.68-25.27L134.68-25.27 129.97-25.27Q129.97-28.49 127.92-30.33 125.87-32.18 122.14-32.18L122.14-32.18Q118.67-32.18 116.73-30.65 114.79-29.13 114.79-26.42L114.79-26.42Q114.79-24.24 116.63-22.74 118.47-21.24 122.91-20 127.34-18.75 129.84-17.25 132.34-15.75 133.55-13.75 134.76-11.74 134.76-9.03L134.76-9.03Q134.76-4.71 131.39-2.11 128.02 0.49 122.38 0.49L122.38 0.49Q118.72 0.49 115.54-0.92 112.37-2.32 110.65-4.76 108.93-7.2 108.93-10.3L108.93-10.3 113.64-10.3Q113.64-7.08 116.02-5.21 118.4-3.34 122.38-3.34L122.38-3.34Q126.09-3.34 128.07-4.86 130.05-6.37 130.05-8.98 130.05-11.6 128.22-13.02 126.38-14.45 121.57-15.84Z" opacity="1" transform="matrix(1,0,0,1,0,0)" fill="#e1e1e1" class="wordmark-text-0" data-fill-palette-color="primary" id="text-0"></path></svg></g></svg></g></svg></g></svg></g><g transform="matrix(1,0,0,1,421.38292874688386,0)"><svg viewBox="0 0 151.4028004887984 151.4028004887984" height="151.4028004887984" width="151.4028004887984"><g data-palette-color="#e77917"><rect width="41.38343213360489" height="151.4028004887984" fill="#e77917" stroke="transparent" data-fill-palette-color="accent" x="0" fill-opacity="1"></rect><rect width="41.38343213360489" height="151.4028004887984" fill="#e77917" stroke="transparent" data-fill-palette-color="accent" x="50.4676001629328" fill-opacity="0.75"></rect><rect width="41.38343213360489" height="151.4028004887984" fill="#e77917" stroke="transparent" data-fill-palette-color="accent" x="100.9352003258656" fill-opacity="0.5"></rect></g></svg></g></svg></g><defs></defs></svg><rect width="395.52" height="104.54666133047064" fill="none" stroke="none" visibility="hidden"></rect></g></svg></g></svg>